<svg width="38" height="38" viewBox="0 0 38 38" fill="none" xmlns="http://www.w3.org/2000/svg">
<path d="M11.2273 0C5.03715 0 0 5.03715 0 11.2273V26.7727C0 32.9629 5.03715 38 11.2273 38H26.7727C32.9629 38 38 32.9629 38 26.7727V11.2273C38 5.03715 32.9629 0 26.7727 0H11.2273ZM11.2273 1.72727H26.7727C32.0292 1.72727 36.2727 5.97076 36.2727 11.2273V26.7727C36.2727 32.0292 32.0292 36.2727 26.7727 36.2727H11.2273C5.97076 36.2727 1.72727 32.0292 1.72727 26.7727V11.2273C1.72727 5.97076 5.97076 1.72727 11.2273 1.72727ZM29.3636 6.90909C28.9055 6.90909 28.4662 7.09107 28.1423 7.415C27.8183 7.73892 27.6364 8.17826 27.6364 8.63636C27.6364 9.09447 27.8183 9.5338 28.1423 9.85773C28.4662 10.1817 28.9055 10.3636 29.3636 10.3636C29.8217 10.3636 30.2611 10.1817 30.585 9.85773C30.9089 9.5338 31.0909 9.09447 31.0909 8.63636C31.0909 8.17826 30.9089 7.73892 30.585 7.415C30.2611 7.09107 29.8217 6.90909 29.3636 6.90909ZM19 9.5C13.7635 9.5 9.5 13.7635 9.5 19C9.5 24.2365 13.7635 28.5 19 28.5C24.2365 28.5 28.5 24.2365 28.5 19C28.5 13.7635 24.2365 9.5 19 9.5ZM19 11.2273C23.303 11.2273 26.7727 14.697 26.7727 19C26.7727 23.303 23.303 26.7727 19 26.7727C14.697 26.7727 11.2273 23.303 11.2273 19C11.2273 14.697 14.697 11.2273 19 11.2273Z" fill="white"/>
</svg>
