<svg width="38" height="38" viewBox="0 0 38 38" fill="none" xmlns="http://www.w3.org/2000/svg">
<path d="M4.52381 0C2.03615 0 0 2.03615 0 4.52381V33.4762C0 35.9639 2.03615 38 4.52381 38H33.4762C35.9639 38 38 35.9639 38 33.4762V4.52381C38 2.03615 35.9639 0 33.4762 0H4.52381ZM4.52381 1.80952H33.4762C34.9858 1.80952 36.1905 3.01423 36.1905 4.52381V33.4762C36.1905 34.9858 34.9858 36.1905 33.4762 36.1905H4.52381C3.01423 36.1905 1.80952 34.9858 1.80952 33.4762V4.52381C1.80952 3.01423 3.01423 1.80952 4.52381 1.80952ZM9.04762 6.34394C8.05671 6.34394 7.16501 6.64012 6.50474 7.19569C5.84447 7.75126 5.43918 8.58123 5.43918 9.46996C5.43918 11.1593 6.9045 12.4763 8.76842 12.6066C8.7696 12.6072 8.77077 12.6078 8.77196 12.6084C8.86078 12.6386 8.9538 12.6547 9.04763 12.6561C11.1042 12.6561 12.6561 11.2155 12.6561 9.46996C12.6559 9.45405 12.6553 9.43813 12.6543 9.42224C12.5622 7.70299 11.0294 6.34394 9.04762 6.34394ZM9.04762 8.13225C10.3073 8.13225 10.8046 8.6948 10.8589 9.49293C10.8479 10.2676 10.3687 10.8677 9.04762 10.8677C7.79415 10.8677 7.22749 10.2258 7.22749 9.46996C7.22749 9.09203 7.3654 8.80722 7.65514 8.56344C7.94487 8.31965 8.40996 8.13225 9.04762 8.13225ZM6.33333 13.5714C5.83367 13.5715 5.42863 13.9765 5.42857 14.4762V31.6667C5.42863 32.1663 5.83367 32.5714 6.33333 32.5714H11.7619C12.2616 32.5714 12.6666 32.1663 12.6667 31.6667V26.36V14.4762C12.6666 13.9765 12.2616 13.5715 11.7619 13.5714H6.33333ZM14.4762 13.5714C13.9765 13.5715 13.5715 13.9765 13.5714 14.4762V31.6667C13.5715 32.1663 13.9765 32.5714 14.4762 32.5714H19.9048C20.4044 32.5714 20.8095 32.1663 20.8095 31.6667V22.619C20.8095 21.8684 21.0144 21.1217 21.375 20.6328C21.7356 20.1439 22.1906 19.8505 23.0555 19.8659C23.9474 19.8812 24.4195 20.1868 24.7767 20.6664C25.1339 21.146 25.3333 21.8651 25.3333 22.619V31.6667C25.3334 32.1663 25.7384 32.5714 26.2381 32.5714H31.6667C32.1663 32.5714 32.5714 32.1663 32.5714 31.6667V21.9511C32.5714 19.2716 31.7778 17.1492 30.4173 15.7132C29.0569 14.2772 27.1647 13.5714 25.1637 13.5714C23.2619 13.5714 21.8146 14.2092 20.8095 14.8597V14.4762C20.8095 13.9765 20.4044 13.5715 19.9048 13.5714H14.4762ZM7.2381 15.381H10.8571V26.36V30.7619H7.2381V15.381ZM15.381 15.381H19V16.7929C19.0001 17.1819 19.2489 17.5274 19.6179 17.6507C19.9868 17.7741 20.3934 17.6479 20.6275 17.3371C20.6275 17.3371 22.0483 15.381 25.1637 15.381C26.75 15.381 28.1104 15.908 29.1043 16.9572C30.0983 18.0064 30.7619 19.6227 30.7619 21.9511V30.7619H27.1428V22.619C27.1428 21.5635 26.8899 20.4721 26.2292 19.5849C25.5686 18.6977 24.4574 18.0799 23.0873 18.0564C21.7102 18.0319 20.5811 18.6625 19.9189 19.5602C19.2567 20.4578 19 21.5602 19 22.619V30.7619H15.3809L15.381 15.381Z" fill="white"/>
</svg>
